<svg xmlns="http://www.w3.org/2000/svg" viewBox="915 468.33 268 182.67"><defs><style>.a,.b,.d,.f,.h{fill:none;}.a,.b,.d,.f{stroke:#3c3f3b;}.a{stroke-width:8px;}.b{stroke-width:7px;}.c{fill:#3e3b3c;}.d{stroke-width:5px;}.e{fill:#3c3f3b;font-size:50px;font-family:Jaapokkienchance-Regular, Jaapokki enchance;}.f{stroke-width:4px;}.g{stroke:none;}</style></defs><g transform="translate(-53 -7)"><path class="a" d="M478.764,651.268s12.664-.122,12.674,0" transform="translate(642 -167.78)"/><g transform="translate(6 1)"><g class="b" transform="translate(1020 511.22)"><circle class="g" cx="30" cy="30" r="30"/><circle class="h" cx="30" cy="30" r="26.5"/></g><g class="b" transform="translate(1111 511.22)"><circle class="g" cx="30" cy="30" r="30"/><circle class="h" cx="30" cy="30" r="26.5"/></g><path class="c" d="M31.746,1.2c-.783-.971-5.767.039-12.419.085s-9.334-3.133-14.187.1S-.062,10-.084,14.205s-.5,6.268,5.137,4.008S15.787,9.422,22.46,5.168,32.53,2.17,31.746,1.2Z" transform="matrix(0.978, 0.208, -0.208, 0.978, 1079.724, 474.419)"/><path class="d" d="M428.213,502.032l27.739-55.545" transform="translate(660.817 40.854)"/><path class="d" d="M433,490.087l-11.813-24.652" transform="translate(672 23.22)"/></g><text class="e" transform="translate(968 632)"><tspan x="0" y="0">BIKE-SHOP</tspan></text><path class="f" d="M939.16,563.373h198.6" transform="translate(63.34 17.362)"/></g></svg>