<svg xmlns="http://www.w3.org/2000/svg" viewBox="292 631 315 229"><defs><style>.a{fill:#00d1b2;}.b,.c,.e,.h{fill:none;}.b,.c,.e{stroke:#3c3f3b;}.b{stroke-width:7px;}.c{stroke-width:4px;}.d{fill:#3e3b3c;}.e{stroke-width:5px;}.f{fill:#3c3f3b;font-size:47px;font-family:Jaapokkienchance-Regular, Jaapokki enchance;}.g{stroke:none;}</style></defs><rect class="a" width="315" height="229" transform="translate(292 631)"/><g class="b" transform="translate(321 677)"><ellipse class="g" cx="45.5" cy="46" rx="45.5" ry="46"/><ellipse class="h" cx="45.5" cy="46" rx="42" ry="42.5"/></g><path class="a" d="M377.035,513.5l2.3,39.825,57.216-12.934Z" transform="translate(8 186.028)"/><path class="c" d="M478.764,651.268s12.664-.122,12.674,0"/><g transform="translate(159)"><g class="b" transform="translate(321 677)"><ellipse class="g" cx="45.5" cy="46" rx="45.5" ry="46"/><ellipse class="h" cx="45.5" cy="46" rx="42" ry="42.5"/></g><path class="a" d="M377.035,513.5l2.3,39.825,57.216-12.934Z" transform="translate(8 186.028)"/></g><path class="d" d="M426.574,457.129c-.782-.855-5.721,0-12.318,0s-9.275-2.8-14.072,0-5.116,7.518-5.116,11.2-.463,5.488,5.116,3.543,10.6-7.639,17.2-11.326S427.356,457.985,426.574,457.129Z" transform="matrix(0.978, 0.208, -0.208, 0.978, 136.507, 121.721)"/><path class="e" d="M423.408,524.323l33.728-77.836" transform="translate(16 206)"/><path class="e" d="M433,490.087l-11.813-24.652" transform="translate(24 200)"/><text class="f" transform="translate(324 835)"><tspan x="0" y="0">BIKE-SHOP</tspan></text></svg>